<svg width="45" height="44" viewBox="0 0 45 44" fill="none" xmlns="http://www.w3.org/2000/svg">
<path fill-rule="evenodd" clip-rule="evenodd" d="M44.5 22C44.5 18.9635 43.9271 16.1061 42.7813 13.4277C41.6354 10.7493 40.0671 8.41472 38.0762 6.42383C36.0853 4.43293 33.7507 2.86459 31.0723 1.71875C28.3939 0.572911 25.5365 0 22.5 0C19.4635 0 16.6061 0.572911 13.9277 1.71875C11.2493 2.86459 8.91472 4.43293 6.92383 6.42383C4.93293 8.41472 3.36459 10.7493 2.21875 13.4277C1.07291 16.1061 0.5 18.9635 0.5 22C0.5 25.0365 1.07291 27.8939 2.21875 30.5723C3.36459 33.2507 4.93293 35.5853 6.92383 37.5762C8.91472 39.5671 11.2493 41.1354 13.9277 42.2813C16.6061 43.4271 19.4635 44 22.5 44C25.5365 44 28.3939 43.4271 31.0723 42.2813C33.7507 41.1354 36.0853 39.5671 38.0762 37.5762C40.0671 35.5853 41.6354 33.2507 42.7813 30.5723C43.9271 27.8939 44.5 25.0365 44.5 22ZM3.20703 22C3.20703 19.3359 3.71549 16.8366 4.73242 14.502C5.74935 12.1673 7.1315 10.1335 8.87891 8.40039C10.6263 6.66731 12.6673 5.29232 15.002 4.27539C17.3366 3.25846 19.8359 2.75 22.5 2.75C25.1641 2.75 27.6634 3.25846 29.998 4.27539C32.3327 5.29232 34.3665 6.66731 36.0996 8.40039C37.8327 10.1335 39.2077 12.1673 40.2246 14.502C41.2415 16.8366 41.75 19.3359 41.75 22C41.75 24.6641 41.2415 27.1634 40.2246 29.498C39.2077 31.8327 37.8327 33.8665 36.0996 35.5996C34.3665 37.3327 32.3327 38.7077 29.998 39.7246C27.6634 40.7415 25.1641 41.25 22.5 41.25C19.8359 41.25 17.3366 40.7415 15.002 39.7246C12.6673 38.7077 10.6263 37.3327 8.87891 35.5996C7.1315 33.8665 5.74935 31.8327 4.73242 29.498C3.71549 27.1634 3.20703 24.6641 3.20703 22ZM23.875 31.625C23.875 32.026 23.7461 32.3555 23.4883 32.6133C23.2305 32.8711 22.901 33 22.5 33C22.1276 33 21.8053 32.8711 21.5332 32.6133C21.2611 32.3555 21.125 32.026 21.125 31.625V16.0703L16.0977 21.1406C15.8112 21.3984 15.4818 21.5273 15.1094 21.5273C14.737 21.5273 14.4076 21.3984 14.1211 21.1406C14.0065 20.9974 13.9134 20.8398 13.8418 20.668C13.7702 20.4961 13.7344 20.3242 13.7344 20.1523C13.7344 19.9805 13.7702 19.8086 13.8418 19.6367C13.9134 19.4648 14.0065 19.3073 14.1211 19.1641L22.457 11.043L30.793 19.1641C31.0794 19.4505 31.2227 19.7799 31.2227 20.1523C31.2227 20.5247 31.0794 20.8542 30.793 21.1406C30.5352 21.3984 30.2129 21.5273 29.8262 21.5273C29.4395 21.5273 29.1172 21.3984 28.8594 21.1406L23.875 16.1563V31.625Z" fill="#FFA438"/>
</svg>
