<svg width="24" height="25" viewBox="0 0 24 25" fill="none" xmlns="http://www.w3.org/2000/svg">
<path d="M10.0002 12.2949H12.0002V13.6283H10.0002V12.2949Z" fill="#FF9316"/>
<path d="M17.6335 10.4082C16.4511 8.47337 14.8382 6.83758 12.9202 5.62816C12.0341 5.06659 11.024 4.73046 9.97816 4.64911C8.93229 4.56777 7.8824 4.74368 6.92016 5.1615C6.0785 5.5585 5.34612 6.15441 4.78628 6.89777C4.22644 7.64113 3.85596 8.50959 3.70683 9.42816C3.6535 9.7415 3.6135 10.0415 3.5735 10.3348C2.94933 10.436 2.38141 10.7557 1.97112 11.2368C1.56082 11.7179 1.33483 12.3292 1.3335 12.9615V17.0482C1.3335 17.4018 1.47397 17.7409 1.72402 17.991C1.97407 18.241 2.31321 18.3815 2.66683 18.3815V12.9615C2.66683 12.6079 2.80731 12.2687 3.05735 12.0187C3.3074 11.7686 3.64654 11.6282 4.00016 11.6282H16.4868C17.7717 11.6299 19.0034 12.1411 19.912 13.0497C20.8205 13.9582 21.3317 15.19 21.3335 16.4748V16.9615H20.0002C19.7186 16.2749 19.1941 15.716 18.5268 15.3915C17.8594 15.0669 17.0959 14.9995 16.382 15.2019C15.6681 15.4044 15.0537 15.8627 14.6561 16.4892C14.2585 17.1158 14.1055 17.8668 14.2263 18.599C14.3471 19.3312 14.7332 19.9933 15.3111 20.4589C15.8889 20.9245 16.6179 21.1611 17.359 21.1235C18.1002 21.0859 18.8015 20.7767 19.3292 20.255C19.8569 19.7332 20.1741 19.0355 20.2202 18.2948H21.3335C21.6871 18.2948 22.0263 18.1544 22.2763 17.9043C22.5264 17.6543 22.6668 17.3151 22.6668 16.9615V16.4748C22.6641 15.0361 22.1601 13.6433 21.2415 12.5361C20.3228 11.4288 19.047 10.6764 17.6335 10.4082ZM7.3335 10.2948H4.62016C4.62016 10.0882 4.68016 9.87483 4.72016 9.62816C4.83534 8.8958 5.13593 8.20507 5.59334 7.62164C6.05075 7.03821 6.64979 6.58146 7.3335 6.29483V10.2948ZM8.66683 10.2948V6.01483C9.91146 5.8532 11.1737 6.12638 12.2402 6.78816C13.696 7.69495 14.9525 8.88795 15.9335 10.2948H8.66683ZM17.2002 19.8815C16.8705 19.8815 16.5483 19.7837 16.2742 19.6006C16.0001 19.4175 15.7865 19.1572 15.6604 18.8526C15.5342 18.5481 15.5012 18.213 15.5655 17.8897C15.6298 17.5664 15.7886 17.2694 16.0217 17.0363C16.2547 16.8032 16.5517 16.6445 16.875 16.5802C17.1983 16.5159 17.5334 16.5489 17.838 16.675C18.1425 16.8012 18.4028 17.0148 18.5859 17.2889C18.7691 17.563 18.8668 17.8852 18.8668 18.2148C18.8668 18.6569 18.6912 19.0808 18.3787 19.3933C18.0661 19.7059 17.6422 19.8815 17.2002 19.8815Z" fill="#FF9316"/>
<path d="M9.44651 16.9615C9.16495 16.275 8.64045 15.7161 7.9731 15.3915C7.30575 15.067 6.54226 14.9995 5.82834 15.202C5.11442 15.4045 4.50003 15.8627 4.10242 16.4893C3.70481 17.1158 3.55181 17.8669 3.67262 18.5991C3.79343 19.3312 4.17959 19.9933 4.75741 20.4589C5.33523 20.9246 6.06427 21.1611 6.80539 21.1235C7.54652 21.0859 8.24786 20.7767 8.77557 20.255C9.30329 19.7333 9.62044 19.0355 9.66651 18.2949H13.1998V18.1282C13.1867 17.7349 13.2316 17.3418 13.3332 16.9615H9.44651ZM6.66651 19.8815C6.33687 19.8815 6.01464 19.7838 5.74056 19.6007C5.46648 19.4175 5.25285 19.1572 5.12671 18.8527C5.00056 18.5481 4.96756 18.213 5.03187 17.8897C5.09617 17.5664 5.25491 17.2695 5.488 17.0364C5.72108 16.8033 6.01806 16.6446 6.34136 16.5802C6.66466 16.5159 6.99977 16.5489 7.30431 16.6751C7.60886 16.8012 7.86916 17.0149 8.05229 17.2889C8.23543 17.563 8.33318 17.8852 8.33318 18.2149C8.33318 18.6569 8.15758 19.0808 7.84502 19.3934C7.53246 19.706 7.10854 19.8815 6.66651 19.8815Z" fill="#FF9316"/>
</svg>
