<svg width="26" height="22" viewBox="0 0 26 22" fill="none" xmlns="http://www.w3.org/2000/svg">
<path d="M10.1356 0.186523C9.58581 0.186523 9.06026 0.412853 8.68249 0.81231L7.59357 1.96375C7.2158 2.3632 6.69025 2.58953 6.14046 2.58953H2.58154C1.47697 2.58953 0.581543 3.48496 0.581543 4.58953V19.8136C0.581543 20.9182 1.47697 21.8136 2.58154 21.8136H23.418C24.5226 21.8136 25.418 20.9182 25.418 19.8136V4.58954C25.418 3.48497 24.5226 2.58953 23.418 2.58953H19.8591C19.3093 2.58953 18.7837 2.3632 18.406 1.96375L17.317 0.81231C16.9393 0.412853 16.4137 0.186523 15.8639 0.186523H10.1356ZM12.9998 18.2091C9.57234 18.2091 6.79065 15.5177 6.79065 12.2016C6.79065 8.88542 9.57234 6.19405 12.9998 6.19405C16.4272 6.19405 19.2089 8.88542 19.2089 12.2016C19.2089 15.5177 16.4272 18.2091 12.9998 18.2091Z" fill="#D8DEEB"/>
<path d="M12.9999 15.8792C15.0574 15.8792 16.7253 14.2654 16.7253 12.2747C16.7253 10.284 15.0574 8.67017 12.9999 8.67017C10.9424 8.67017 9.27441 10.284 9.27441 12.2747C9.27441 14.2654 10.9424 15.8792 12.9999 15.8792Z" fill="#D8DEEB"/>
</svg>
