<svg width="13" height="13" viewBox="0 0 13 13" fill="none" xmlns="http://www.w3.org/2000/svg">
<path d="M1.27033 1.20319C0.820239 1.65328 0.567383 2.26372 0.567383 2.90024V7.70024C0.567383 8.33676 0.820239 8.94721 1.27033 9.3973C1.72041 9.84739 2.33086 10.1002 2.96738 10.1002V11.9002C2.96744 12.0088 2.99693 12.1153 3.05272 12.2084C3.10851 12.3014 3.1885 12.3777 3.28418 12.4289C3.37986 12.4801 3.48765 12.5044 3.59605 12.4992C3.70446 12.4941 3.80943 12.4596 3.89978 12.3994L7.34858 10.1002H10.1674C10.8039 10.1002 11.4144 9.84739 11.8644 9.3973C12.3145 8.94721 12.5674 8.33676 12.5674 7.70024V2.90024C12.5674 2.26372 12.3145 1.65328 11.8644 1.20319C11.4144 0.753101 10.8039 0.500244 10.1674 0.500244H2.96738C2.33086 0.500244 1.72041 0.753101 1.27033 1.20319Z" fill="#767D86"/>
</svg>
