<svg width="17" height="16" viewBox="0 0 17 16" fill="none" xmlns="http://www.w3.org/2000/svg">
<g clip-path="url(#clip0_52954_34763)">
<path d="M6.78613 8.66648C7.07243 9.04923 7.4377 9.36594 7.85717 9.59511C8.27663 9.82428 8.74047 9.96056 9.21723 9.9947C9.694 10.0288 10.1725 9.96006 10.6204 9.793C11.0682 9.62594 11.4749 9.36453 11.8128 9.02648L13.8128 7.02648C14.42 6.39781 14.756 5.5558 14.7484 4.68181C14.7408 3.80782 14.3902 2.97178 13.7722 2.35375C13.1542 1.73573 12.3181 1.38516 11.4441 1.37757C10.5701 1.36997 9.72814 1.70595 9.09947 2.31315L7.9528 3.45315" stroke="#FF9316" stroke-linecap="round" stroke-linejoin="round"/>
<path d="M9.45358 7.33332C9.16728 6.95057 8.80201 6.63387 8.38255 6.40469C7.96309 6.17552 7.49924 6.03924 7.02248 6.0051C6.54572 5.97095 6.06719 6.03974 5.61935 6.2068C5.17151 6.37386 4.76484 6.63527 4.42692 6.97332L2.42692 8.97332C1.81972 9.60199 1.48374 10.444 1.49134 11.318C1.49893 12.192 1.84949 13.028 2.46752 13.646C3.08555 14.2641 3.92159 14.6146 4.79558 14.6222C5.66957 14.6298 6.51158 14.2938 7.14025 13.6867L8.28025 12.5467" stroke="#FF9316" stroke-linecap="round" stroke-linejoin="round"/>
</g>
<defs>
<clipPath id="clip0_52954_34763">
<rect width="16" height="16" fill="white" transform="translate(0.120117)"/>
</clipPath>
</defs>
</svg>
