<svg width="17" height="16" viewBox="0 0 17 16" fill="none" xmlns="http://www.w3.org/2000/svg">
<g clip-path="url(#clip0_52954_34785)">
<path d="M7.41309 2.70703H2.74642C2.3928 2.70703 2.05366 2.84751 1.80361 3.09756C1.55356 3.3476 1.41309 3.68674 1.41309 4.04036V13.3737C1.41309 13.7273 1.55356 14.0665 1.80361 14.3165C2.05366 14.5666 2.3928 14.707 2.74642 14.707H12.0798C12.4334 14.707 12.7725 14.5666 13.0226 14.3165C13.2726 14.0665 13.4131 13.7273 13.4131 13.3737V8.70703" stroke="#FF9316" stroke-linecap="round" stroke-linejoin="round"/>
<path d="M12.4131 1.70718C12.6783 1.44197 13.038 1.29297 13.4131 1.29297C13.7882 1.29297 14.1479 1.44197 14.4131 1.70718C14.6783 1.9724 14.8273 2.33211 14.8273 2.70718C14.8273 3.08226 14.6783 3.44197 14.4131 3.70718L8.07975 10.0405L5.41309 10.7072L6.07975 8.04052L12.4131 1.70718Z" stroke="#FF9316" stroke-linecap="round" stroke-linejoin="round"/>
</g>
<defs>
<clipPath id="clip0_52954_34785">
<rect width="16" height="16" fill="white" transform="translate(0.120117)"/>
</clipPath>
</defs>
</svg>
