<svg width="17" height="16" viewBox="0 0 17 16" fill="none" xmlns="http://www.w3.org/2000/svg">
<path d="M14.5995 7.57137L8.47285 13.698C7.72229 14.4486 6.70431 14.8703 5.64285 14.8703C4.58139 14.8703 3.56341 14.4486 2.81285 13.698C2.06229 12.9475 1.64063 11.9295 1.64062 10.868C1.64063 9.80658 2.06229 8.78859 2.81285 8.03803L8.93952 1.91137C9.43989 1.41099 10.1185 1.12988 10.8262 1.12988C11.5338 1.12988 12.2125 1.41099 12.7129 1.91137C13.2132 2.41174 13.4943 3.09039 13.4943 3.79803C13.4943 4.50567 13.2132 5.18432 12.7129 5.6847L6.57952 11.8114C6.32933 12.0616 5.99 12.2021 5.63618 12.2021C5.28236 12.2021 4.94304 12.0616 4.69285 11.8114C4.44266 11.5612 4.30211 11.2219 4.30211 10.868C4.30211 10.5142 4.44266 10.1749 4.69285 9.9247L10.3528 4.27137" stroke="#FF9316" stroke-linecap="round" stroke-linejoin="round"/>
</svg>
